<?xml version="1.0" encoding="UTF-8" standalone="no"?>
<!DOCTYPE svg PUBLIC "-//W3C//DTD SVG 1.1//EN"
"http://www.w3.org/Graphics/SVG/1.1/DTD/svg11.dtd">


<!-- Page 1 -->
<svg x="0" y="0" width="406" height="346" version="1.1" xmlns="http://www.w3.org/2000/svg" xmlns:xlink="http://www.w3.org/1999/xlink"
style="display: block;margin-left: auto;margin-right: auto;">
<defs>

<style type="text/css"><![CDATA[

.g3_1{
fill: none;
stroke: #000000;
stroke-width: 1;
stroke-linecap: butt;
stroke-linejoin: miter;
stroke-dasharray: 5,4;
}
.g2_1{
fill: none;
stroke: #000000;
stroke-width: 1;
stroke-linecap: round;
stroke-linejoin: round;
}
.g1_1{
fill: none;
stroke: #000000;
stroke-width: 1;
stroke-linecap: butt;
stroke-linejoin: miter;
}

.s1_1{
font-size: 13.70px;
font-family: FVXIKM-CMR91;
fill: #0000FF;
}
.s3_1{
font-size: 13.70px;
font-family: XFMVYR-CMMI91;
fill: #0000FF;
}
.s4_1{
font-size: 9.13px;
font-family: GUOWTK-CMSY61;
fill: #0000FF;
}
.s2_1{
font-size: 9.13px;
font-family: TAYFUW-CMMI61;
fill: #0000FF;
}

]]></style>

</defs>
<path d="M0,0
L0,346
L406,346
L406,0 Z " 
fill="#FFFFFF" stroke="none" />
<path d="M104.5,295.5l-12,0" class="g1_1" />
<path d="M130.5,295.5l11,0" class="g1_1" />
<path d="M127,283l-19.8,0c-1.7,0,-3.1,1.4,-3.1,3.1l0,19.8c0,1.6,1.4,3,3.1,3l19.8,0c1.6,0,3,-1.4,3,-3l0,-19.8c0,-1.7,-1.4,-3.1,-3,-3.1Z" class="g1_1" />
<path d="M114.5,305.5l0,-18" class="g1_1" />
<path d="M112,289.8c1,-0.2,2.6,-2.1,2.8,-2.6c0.1,0.1,0.1,0.2,0.1,0.2l0,0.3" class="g2_1" />
<path d="M119.5,286.5l0,18" class="g1_1" />
<path d="M122.2,302.1c-1.1,0.2,-2.7,2.1,-2.8,2.6c-0.1,-0.1,-0.1,-0.1,-0.1,-0.1l0,-0.4" class="g2_1" />
<text 
x="110" 
y="323" 
textLength="12" 
class="s1_1"
>1s</text>

<path d="M104.5,209.5l-12,0" class="g1_1" />
<path d="M130.5,209.5l11,0" class="g1_1" />
<path d="M127,196.4l-19.8,0c-1.7,0,-3.1,1.4,-3.1,3.1l0,19.7c0,1.7,1.4,3.1,3.1,3.1l19.8,0c1.6,0,3,-1.4,3,-3.1l0,-19.7c0,-1.7,-1.4,-3.1,-3,-3.1Z" class="g1_1" />
<path d="M114.5,218.5l0,-17" class="g1_1" />
<path d="M112,203.2c1,-0.2,2.6,-2.1,2.8,-2.6c0.1,0.1,0.1,0.2,0.1,0.2l0,0.3" class="g2_1" />
<path d="M119.5,200.5l0,17" class="g1_1" />
<path d="M122.2,215.5c-1.1,0.2,-2.7,2.1,-2.8,2.6c-0.1,-0.1,-0.1,-0.2,-0.1,-0.2l0,-0.3" class="g2_1" />
<text 
x="110" 
y="236" 
textLength="12" 
class="s1_1"
>2s</text>

<path d="M104.5,79.5l-12,0" class="g1_1" />
<path d="M130.5,79.5l11,0" class="g1_1" />
<path d="M127,66.5l-19.8,0c-1.7,0,-3.1,1.4,-3.1,3l0,19.8c0,1.7,1.4,3.1,3.1,3.1l19.8,0c1.6,0,3,-1.4,3,-3.1l0,-19.8c0,-1.6,-1.4,-3,-3,-3Z" class="g1_1" />
<path d="M114.5,88.5l0,-17" class="g1_1" />
<path d="M112,73.3c1,-0.2,2.6,-2.1,2.8,-2.6c0.1,0.1,0.1,0.1,0.1,0.1l0,0.4" class="g2_1" />
<text 
x="106" 
y="106" 
textLength="14" 
class="s1_1"
>2p</text>

<text 
x="121" 
y="108" 
textLength="5" 
class="s2_1"
>z</text>

<path d="M58.5,79.5l-11,0" class="g1_1" />
<path d="M84.5,79.5l11,0" class="g1_1" />
<path d="M81.3,66.5l-19.8,0c-1.7,0,-3,1.4,-3,3l0,19.8c0,1.7,1.3,3.1,3,3.1l19.8,0c1.7,0,3,-1.4,3,-3.1l0,-19.8c0,-1.6,-1.3,-3,-3,-3Z" class="g1_1" />
<path d="M69.5,88.5l0,-17" class="g1_1" />
<path d="M66.3,73.3c1.1,-0.2,2.7,-2.1,2.8,-2.6c0.1,0.1,0.1,0.1,0.1,0.1l0,0.4" class="g2_1" />
<text 
x="60" 
y="106" 
textLength="14" 
class="s1_1"
>2p</text>

<text 
x="75" 
y="108" 
textLength="5" 
class="s2_1"
>y</text>

<path d="M12.5,79.5l-11,0" class="g1_1" />
<path d="M38.5,79.5l12,0" class="g1_1" />
<path d="M35.6,66.5l-19.7,0c-1.7,0,-3.1,1.4,-3.1,3l0,19.8c0,1.7,1.4,3.1,3.1,3.1l19.7,0c1.7,0,3.1,-1.4,3.1,-3.1l0,-19.8c0,-1.6,-1.4,-3,-3.1,-3Z" class="g1_1" />
<path d="M23.5,88.5l0,-17" class="g1_1" />
<path d="M20.7,73.3c1,-0.2,2.6,-2.1,2.8,-2.6c0.1,0.1,0.1,0.1,0.1,0.1l0,0.4" class="g2_1" />
<path d="M28.5,70.5l0,17" class="g1_1" />
<path d="M30.8,85.6c-1,0.1,-2.6,2.1,-2.8,2.6C27.9,88.1,27.9,88,27.9,88l0,-0.3" class="g2_1" />
<text 
x="14" 
y="106" 
textLength="14" 
class="s1_1"
>2p</text>

<text 
x="29" 
y="108" 
textLength="6" 
class="s2_1"
>x</text>

<path d="M277.5,295.5l-12,0" class="g1_1" />
<path d="M303.5,295.5l11,0" class="g1_1" />
<path d="M300.2,283l-19.8,0c-1.7,0,-3,1.4,-3,3.1l0,19.8c0,1.6,1.3,3,3,3l19.8,0c1.7,0,3,-1.4,3,-3l0,-19.8c0,-1.7,-1.3,-3.1,-3,-3.1Z" class="g1_1" />
<path d="M288.5,305.5l0,-18" class="g1_1" />
<path d="M285.2,289.8c1.1,-0.2,2.6,-2.1,2.8,-2.6c0.1,0.1,0.1,0.2,0.1,0.2l0,0.3" class="g2_1" />
<path d="M292.5,286.5l0,18" class="g1_1" />
<path d="M295.4,302.1c-1.1,0.2,-2.6,2.1,-2.8,2.6c-0.1,-0.1,-0.1,-0.1,-0.1,-0.1l0,-0.4" class="g2_1" />
<text 
x="284" 
y="323" 
textLength="12" 
class="s1_1"
>1s</text>

<path d="M277.5,209.5l-12,0" class="g1_1" />
<path d="M303.5,209.5l11,0" class="g1_1" />
<path d="M300.2,196.4l-19.8,0c-1.7,0,-3,1.4,-3,3.1l0,19.7c0,1.7,1.3,3.1,3,3.1l19.8,0c1.7,0,3,-1.4,3,-3.1l0,-19.7c0,-1.7,-1.3,-3.1,-3,-3.1Z" class="g1_1" />
<path d="M288.5,218.5l0,-17" class="g1_1" />
<path d="M285.2,203.2c1.1,-0.2,2.6,-2.1,2.8,-2.6c0.1,0.1,0.1,0.2,0.1,0.2l0,0.3" class="g2_1" />
<path d="M292.5,200.5l0,17" class="g1_1" />
<path d="M295.4,215.5c-1.1,0.2,-2.6,2.1,-2.8,2.6c-0.1,-0.1,-0.1,-0.2,-0.1,-0.2l0,-0.3" class="g2_1" />
<text 
x="284" 
y="236" 
textLength="12" 
class="s1_1"
>2s</text>

<path d="M368.5,79.5l-11,0" class="g1_1" />
<path d="M394.5,79.5l11,0" class="g1_1" />
<path d="M391.5,66.5l-19.8,0c-1.7,0,-3,1.4,-3,3l0,19.8c0,1.7,1.3,3.1,3,3.1l19.8,0c1.7,0,3.1,-1.4,3.1,-3.1l0,-19.8c0,-1.6,-1.4,-3,-3.1,-3Z" class="g1_1" />
<path d="M379.5,88.5l0,-17" class="g1_1" />
<path d="M376.5,73.3c1.1,-0.2,2.7,-2.1,2.8,-2.6c0.1,0.1,0.1,0.1,0.1,0.1l0,0.4" class="g2_1" />
<text 
x="370" 
y="106" 
textLength="14" 
class="s1_1"
>2p</text>

<text 
x="385" 
y="108" 
textLength="5" 
class="s2_1"
>z</text>

<path d="M323.5,79.5l-12,0" class="g1_1" />
<path d="M348.5,79.5l12,0" class="g1_1" />
<path d="M345.9,66.5l-19.8,0c-1.7,0,-3.1,1.4,-3.1,3l0,19.8c0,1.7,1.4,3.1,3.1,3.1l19.8,0c1.6,0,3,-1.4,3,-3.1l0,-19.8c0,-1.6,-1.4,-3,-3,-3Z" class="g1_1" />
<path d="M333.5,88.5l0,-17" class="g1_1" />
<path d="M330.9,73.3c1,-0.2,2.6,-2.1,2.8,-2.6c0.1,0.1,0.1,0.1,0.1,0.1l0,0.4" class="g2_1" />
<text 
x="325" 
y="106" 
textLength="14" 
class="s1_1"
>2p</text>

<text 
x="339" 
y="108" 
textLength="5" 
class="s2_1"
>y</text>

<path d="M277.5,79.5l-12,0" class="g1_1" />
<path d="M303.5,79.5l11,0" class="g1_1" />
<path d="M300.2,66.5l-19.8,0c-1.7,0,-3,1.4,-3,3l0,19.8c0,1.7,1.3,3.1,3,3.1l19.8,0c1.7,0,3,-1.4,3,-3.1l0,-19.8c0,-1.6,-1.3,-3,-3,-3Z" class="g1_1" />
<path d="M288.5,88.5l0,-17" class="g1_1" />
<path d="M285.2,73.3c1.1,-0.2,2.6,-2.1,2.8,-2.6c0.1,0.1,0.1,0.1,0.1,0.1l0,0.4" class="g2_1" />
<path d="M292.5,70.5l0,17" class="g1_1" />
<path d="M295.4,85.6c-1.1,0.1,-2.6,2.1,-2.8,2.6C292.5,88.1,292.5,88,292.5,88l0,-0.3" class="g2_1" />
<text 
x="279" 
y="106" 
textLength="14" 
class="s1_1"
>2p</text>

<text 
x="294" 
y="108" 
textLength="6" 
class="s2_1"
>x</text>

<path d="M190.5,317.5l-11,0" class="g1_1" />
<path d="M216.5,317.5l12,0" class="g1_1" />
<path d="M213.6,304.7l-19.8,0c-1.7,0,-3.1,1.3,-3.1,3l0,19.8c0,1.7,1.4,3.1,3.1,3.1l19.8,0c1.7,0,3,-1.4,3,-3.1l0,-19.8c0,-1.7,-1.3,-3,-3,-3Z" class="g1_1" />
<path d="M201.5,326.5l0,-17" class="g1_1" />
<path d="M198.6,311.5c1,-0.2,2.6,-2.1,2.8,-2.7c0.1,0.2,0.1,0.2,0.1,0.2l0,0.4" class="g2_1" />
<path d="M205.5,308.5l0,17" class="g1_1" />
<path d="M208.8,323.8c-1.1,0.1,-2.7,2.1,-2.8,2.6c-0.1,-0.2,-0.1,-0.2,-0.1,-0.2l0,-0.3" class="g2_1" />
<text 
x="192" 
y="345" 
textLength="7" 
class="s1_1"
>1</text>

<text 
x="199" 
y="345" 
textLength="8" 
class="s3_1"
>σ</text>

<text 
x="208" 
y="346" 
textLength="5" 
class="s2_1"
>s</text>

<path d="M190.5,274.5l-11,0" class="g1_1" />
<path d="M216.5,274.5l12,0" class="g1_1" />
<path d="M213.6,261.4l-19.8,0c-1.7,0,-3.1,1.3,-3.1,3l0,19.8c0,1.7,1.4,3,3.1,3l19.8,0c1.7,0,3,-1.3,3,-3l0,-19.8c0,-1.7,-1.3,-3,-3,-3Z" class="g1_1" />
<path d="M201.5,283.5l0,-17" class="g1_1" />
<path d="M198.6,268.2c1,-0.2,2.6,-2.1,2.8,-2.7c0.1,0.2,0.1,0.2,0.1,0.2l0,0.4" class="g2_1" />
<path d="M205.5,265.5l0,17" class="g1_1" />
<path d="M208.8,280.5c-1.1,0.1,-2.7,2.1,-2.8,2.6c-0.1,-0.2,-0.1,-0.2,-0.1,-0.2l0,-0.3" class="g2_1" />
<text 
x="192" 
y="302" 
textLength="7" 
class="s1_1"
>1</text>

<text 
x="199" 
y="302" 
textLength="8" 
class="s3_1"
>σ</text>

<text 
x="208" 
y="297" 
textLength="5" 
class="s4_1"
>*</text>

<text 
x="208" 
y="305" 
textLength="5" 
class="s2_1"
>s</text>

<path d="M141.7,296L179,317.6m49.3,0L265.6,296m-123.9,0L179,274.3m49.3,0L265.6,296" class="g3_1" />
<path d="M190.5,231.5l-11,0" class="g1_1" />
<path d="M216.5,231.5l12,0" class="g1_1" />
<path d="M213.6,218.1l-19.8,0c-1.7,0,-3.1,1.3,-3.1,3l0,19.8c0,1.7,1.4,3,3.1,3l19.8,0c1.7,0,3,-1.3,3,-3l0,-19.8c0,-1.7,-1.3,-3,-3,-3Z" class="g1_1" />
<path d="M201.5,240.5l0,-18" class="g1_1" />
<path d="M198.6,224.9c1,-0.2,2.6,-2.1,2.8,-2.7c0.1,0.2,0.1,0.2,0.1,0.2l0,0.4" class="g2_1" />
<path d="M205.5,221.5l0,18" class="g1_1" />
<path d="M208.8,237.1c-1.1,0.2,-2.7,2.1,-2.8,2.7c-0.1,-0.2,-0.1,-0.2,-0.1,-0.2l0,-0.4" class="g2_1" />
<text 
x="192" 
y="258" 
textLength="7" 
class="s1_1"
>2</text>

<text 
x="199" 
y="258" 
textLength="8" 
class="s3_1"
>σ</text>

<text 
x="208" 
y="259" 
textLength="5" 
class="s2_1"
>s</text>

<path d="M190.5,187.5l-11,0" class="g1_1" />
<path d="M216.5,187.5l12,0" class="g1_1" />
<path d="M213.6,174.8l-19.8,0c-1.7,0,-3.1,1.3,-3.1,3l0,19.8c0,1.7,1.4,3,3.1,3l19.8,0c1.7,0,3,-1.3,3,-3l0,-19.8c0,-1.7,-1.3,-3,-3,-3Z" class="g1_1" />
<path d="M201.5,196.5l0,-17" class="g1_1" />
<path d="M198.6,181.6c1,-0.2,2.6,-2.1,2.8,-2.7c0.1,0.2,0.1,0.2,0.1,0.2l0,0.4" class="g2_1" />
<path d="M205.5,178.5l0,17" class="g1_1" />
<path d="M208.8,193.8c-1.1,0.2,-2.7,2.1,-2.8,2.7c-0.1,-0.2,-0.1,-0.2,-0.1,-0.2l0,-0.4" class="g2_1" />
<text 
x="192" 
y="216" 
textLength="7" 
class="s1_1"
>2</text>

<text 
x="199" 
y="216" 
textLength="8" 
class="s3_1"
>σ</text>

<text 
x="208" 
y="210" 
textLength="5" 
class="s4_1"
>*</text>

<text 
x="208" 
y="218" 
textLength="5" 
class="s2_1"
>s</text>

<path d="M141.7,209.3L179,231m49.3,0l37.3,-21.7m-123.9,0L179,187.7m49.3,0l37.3,21.6" class="g3_1" />
<path d="M190.5,144.5l-11,0" class="g1_1" />
<path d="M216.5,144.5l12,0" class="g1_1" />
<path d="M213.6,131.5l-19.8,0c-1.7,0,-3.1,1.3,-3.1,3l0,19.8c0,1.7,1.4,3,3.1,3l19.8,0c1.7,0,3,-1.3,3,-3l0,-19.8c0,-1.7,-1.3,-3,-3,-3Z" class="g1_1" />
<path d="M201.5,153.5l0,-17" class="g1_1" />
<path d="M198.6,138.2c1,-0.1,2.6,-2.1,2.8,-2.6c0.1,0.2,0.1,0.2,0.1,0.2l0,0.3" class="g2_1" />
<path d="M205.5,135.5l0,17" class="g1_1" />
<path d="M208.8,150.5c-1.1,0.2,-2.7,2.1,-2.8,2.7C205.9,153,205.9,153,205.9,153l0,-0.4" class="g2_1" />
<text 
x="192" 
y="171" 
textLength="7" 
class="s1_1"
>2</text>

<text 
x="199" 
y="171" 
textLength="8" 
class="s3_1"
>σ</text>

<text 
x="207" 
y="173" 
textLength="6" 
class="s2_1"
>x</text>

<path d="M190.5,14.5l-11,0" class="g1_1" />
<path d="M216.5,14.5l12,0" class="g1_1" />
<path d="M213.6,1.5l-19.8,0c-1.7,0,-3.1,1.4,-3.1,3.1l0,19.8c0,1.6,1.4,3,3.1,3l19.8,0c1.7,0,3,-1.4,3,-3l0,-19.8c0,-1.7,-1.3,-3.1,-3,-3.1Z" class="g1_1" />
<text 
x="192" 
y="43" 
textLength="7" 
class="s1_1"
>2</text>

<text 
x="199" 
y="43" 
textLength="8" 
class="s3_1"
>σ</text>

<text 
x="207" 
y="37" 
textLength="5" 
class="s4_1"
>*</text>

<text 
x="207" 
y="45" 
textLength="6" 
class="s2_1"
>x</text>

<path d="M167.5,101.5l-11,0" class="g1_1" />
<path d="M193.5,101.5l12,0" class="g1_1" />
<path d="M190.7,88.1l-19.7,0c-1.7,0,-3.1,1.4,-3.1,3.1l0,19.8c0,1.7,1.4,3,3.1,3l19.7,0c1.7,0,3.1,-1.3,3.1,-3l0,-19.8c0,-1.7,-1.4,-3.1,-3.1,-3.1Z" class="g1_1" />
<path d="M178.5,110.5l0,-18" class="g1_1" />
<path d="M175.8,94.9c1,-0.1,2.6,-2.1,2.8,-2.6c0.1,0.2,0.1,0.2,0.1,0.2l0,0.3" class="g2_1" />
<path d="M183.5,91.5l0,18" class="g1_1" />
<path d="M185.9,107.2c-1,0.2,-2.6,2.1,-2.8,2.6C183,109.7,183,109.7,183,109.7l0,-0.4" class="g2_1" />
<text 
x="169" 
y="128" 
textLength="7" 
class="s1_1"
>2</text>

<text 
x="176" 
y="128" 
textLength="8" 
class="s3_1"
>π</text>

<text 
x="185" 
y="130" 
textLength="5" 
class="s2_1"
>y</text>

<path d="M167.5,57.5l-11,0" class="g1_1" />
<path d="M193.5,57.5l12,0" class="g1_1" />
<path d="M190.7,44.8l-19.7,0c-1.7,0,-3.1,1.4,-3.1,3.1l0,19.8c0,1.6,1.4,3,3.1,3l19.7,0c1.7,0,3.1,-1.4,3.1,-3l0,-19.8c0,-1.7,-1.4,-3.1,-3.1,-3.1Z" class="g1_1" />
<path d="M178.5,66.5l0,-17" class="g1_1" />
<path d="M175.8,51.6c1,-0.1,2.6,-2.1,2.8,-2.6c0.1,0.1,0.1,0.2,0.1,0.2l0,0.3" class="g2_1" />
<text 
x="169" 
y="86" 
textLength="7" 
class="s1_1"
>2</text>

<text 
x="176" 
y="86" 
textLength="8" 
class="s3_1"
>π</text>

<text 
x="185" 
y="80" 
textLength="5" 
class="s4_1"
>*</text>

<text 
x="185" 
y="88" 
textLength="5" 
class="s2_1"
>y</text>

<path d="M213.5,101.5l-11,0" class="g1_1" />
<path d="M239.5,101.5l11,0" class="g1_1" />
<path d="M236.4,88.1l-19.8,0c-1.7,0,-3,1.4,-3,3.1l0,19.8c0,1.7,1.3,3,3,3l19.8,0c1.7,0,3.1,-1.3,3.1,-3l0,-19.8c0,-1.7,-1.4,-3.1,-3.1,-3.1Z" class="g1_1" />
<path d="M224.5,110.5l0,-18" class="g1_1" />
<path d="M221.4,94.9c1.1,-0.1,2.7,-2.1,2.8,-2.6c0.1,0.2,0.1,0.2,0.1,0.2l0,0.3" class="g2_1" />
<path d="M228.5,91.5l0,18" class="g1_1" />
<path d="M231.6,107.2c-1.1,0.2,-2.6,2.1,-2.8,2.6c-0.1,-0.1,-0.1,-0.1,-0.1,-0.1l0,-0.4" class="g2_1" />
<text 
x="215" 
y="128" 
textLength="7" 
class="s1_1"
>2</text>

<text 
x="222" 
y="128" 
textLength="8" 
class="s3_1"
>π</text>

<text 
x="231" 
y="130" 
textLength="5" 
class="s2_1"
>z</text>

<path d="M213.5,57.5l-11,0" class="g1_1" />
<path d="M239.5,57.5l11,0" class="g1_1" />
<path d="M236.4,44.8l-19.8,0c-1.7,0,-3,1.4,-3,3.1l0,19.8c0,1.6,1.3,3,3,3l19.8,0c1.7,0,3.1,-1.4,3.1,-3l0,-19.8c0,-1.7,-1.4,-3.1,-3.1,-3.1Z" class="g1_1" />
<path d="M224.5,66.5l0,-17" class="g1_1" />
<path d="M221.4,51.6c1.1,-0.1,2.7,-2.1,2.8,-2.6c0.1,0.1,0.1,0.2,0.1,0.2l0,0.3" class="g2_1" />
<text 
x="215" 
y="86" 
textLength="7" 
class="s1_1"
>2</text>

<text 
x="222" 
y="86" 
textLength="8" 
class="s3_1"
>π</text>

<text 
x="231" 
y="80" 
textLength="5" 
class="s4_1"
>*</text>

<text 
x="231" 
y="88" 
textLength="5" 
class="s2_1"
>z</text>

<path d="M141.7,79.4l37.3,65m49.3,0l37.3,-65m-123.9,0L179,14.5m49.3,0l37.3,64.9m-123.9,0l14.5,21.7m95,0L265.6,79.4m-123.9,0L156.2,57.8m95,0l14.4,21.6" class="g3_1" />

<path d="M0,346
L0,0
L406,0
L406,346 z "
fill="none"
stroke-width="1.0"
stroke-linecap="butt"
stroke-linejoin="miter"
stroke="#000000" />

<!-- Any embedded fonts defined here -->
<style type="text/css" ><![CDATA[

@font-face {
	font-family: GUOWTK-CMSY61;
	src :url("1/fonts/GUOWTK-CMSY6.woff") format("woff");
}

@font-face {
	font-family: FVXIKM-CMR91;
	src :url("1/fonts/FVXIKM-CMR9.woff") format("woff");
}

@font-face {
	font-family: XFMVYR-CMMI91;
	src :url("1/fonts/XFMVYR-CMMI9.woff") format("woff");
}

@font-face {
	font-family: TAYFUW-CMMI61;
	src :url("1/fonts/TAYFUW-CMMI6.woff") format("woff");
}

]]></style>

<title>main_crop Page1</title>
</svg>
